<svg xmlns="http://www.w3.org/2000/svg" version="1.1" xmlns:xlink="http://www.w3.org/1999/xlink" xmlns:svgjs="http://svgjs.dev/svgjs" width="100%" height="auto" preserveAspectRatio="none" viewBox="0 0 1440 560">
    <g mask="url(&quot;#SvgjsMask1092&quot;)" fill="none">
        <rect width="1440" height="560" x="0" y="0" fill="rgba(229, 231, 235, 1)"></rect>
        <path d="M-104.35 410.64L-104.35 410.64" stroke="rgba(135, 159, 184, 0.26)" stroke-width="1.5"></path>
        <path d="M-104.35 410.64L-60.96 509.36" stroke="rgba(135, 159, 184, 0.26)" stroke-width="1.5"></path>
        <path d="M-104.35 410.64L89.49 520.62" stroke="rgba(135, 159, 184, 0.26)" stroke-width="1.5"></path>
        <path d="M-104.35 410.64L-92.78 709.48" stroke="rgba(135, 159, 184, 0.26)" stroke-width="1.5"></path>
        <path d="M-104.35 410.64L243.74 343.14" stroke="rgba(135, 159, 184, 0.26)" stroke-width="1.5"></path>
        <path d="M-104.35 410.64L243.54 493.41" stroke="rgba(135, 159, 184, 0.26)" stroke-width="1.5"></path>
        <path d="M-104.35 410.64L225.3 653.49" stroke="rgba(135, 159, 184, 0.26)" stroke-width="1.5"></path>
        <path d="M-60.96 509.36L-60.96 509.36" stroke="rgba(135, 159, 184, 0.26)" stroke-width="1.5"></path>
        <path d="M-60.96 509.36L89.49 520.62" stroke="rgba(135, 159, 184, 0.26)" stroke-width="1.5"></path>
        <path d="M-92.78 709.48L-92.78 709.48" stroke="rgba(135, 159, 184, 0.26)" stroke-width="1.5"></path>
        <path d="M-92.78 709.48L-60.96 509.36" stroke="rgba(135, 159, 184, 0.26)" stroke-width="1.5"></path>
        <path d="M-92.78 709.48L89.49 520.62" stroke="rgba(135, 159, 184, 0.26)" stroke-width="1.5"></path>
        <path d="M89.49 520.62L89.49 520.62" stroke="rgba(135, 159, 184, 0.26)" stroke-width="1.5"></path>
        <path d="M89.49 520.62L243.54 493.41" stroke="rgba(135, 159, 184, 0.26)" stroke-width="1.5"></path>
        <path d="M243.74 343.14L243.74 343.14" stroke="rgba(135, 159, 184, 0.26)" stroke-width="1.5"></path>
        <path d="M243.74 343.14L243.54 493.41" stroke="rgba(135, 159, 184, 0.26)" stroke-width="1.5"></path>
        <path d="M243.74 343.14L404.39 361.85" stroke="rgba(135, 159, 184, 0.26)" stroke-width="1.5"></path>
        <path d="M243.74 343.14L369.66 532.78" stroke="rgba(135, 159, 184, 0.26)" stroke-width="1.5"></path>
        <path d="M243.74 343.14L89.49 520.62" stroke="rgba(135, 159, 184, 0.26)" stroke-width="1.5"></path>
        <path d="M243.74 343.14L509.9 347.6" stroke="rgba(135, 159, 184, 0.26)" stroke-width="1.5"></path>
        <path d="M243.74 343.14L492.27 510.98" stroke="rgba(135, 159, 184, 0.26)" stroke-width="1.5"></path>
        <path d="M243.54 493.41L243.54 493.41" stroke="rgba(135, 159, 184, 0.26)" stroke-width="1.5"></path>
        <path d="M243.54 493.41L369.66 532.78" stroke="rgba(135, 159, 184, 0.26)" stroke-width="1.5"></path>
        <path d="M225.3 653.49L225.3 653.49" stroke="rgba(135, 159, 184, 0.26)" stroke-width="1.5"></path>
        <path d="M225.3 653.49L342.92 673.32" stroke="rgba(135, 159, 184, 0.26)" stroke-width="1.5"></path>
        <path d="M225.3 653.49L243.54 493.41" stroke="rgba(135, 159, 184, 0.26)" stroke-width="1.5"></path>
        <path d="M225.3 653.49L369.66 532.78" stroke="rgba(135, 159, 184, 0.26)" stroke-width="1.5"></path>
        <path d="M404.39 361.85L404.39 361.85" stroke="rgba(135, 159, 184, 0.26)" stroke-width="1.5"></path>
        <path d="M404.39 361.85L509.9 347.6" stroke="rgba(135, 159, 184, 0.26)" stroke-width="1.5"></path>
        <path d="M404.39 361.85L492.27 510.98" stroke="rgba(135, 159, 184, 0.26)" stroke-width="1.5"></path>
        <path d="M404.39 361.85L369.66 532.78" stroke="rgba(135, 159, 184, 0.26)" stroke-width="1.5"></path>
        <path d="M404.39 361.85L243.54 493.41" stroke="rgba(135, 159, 184, 0.26)" stroke-width="1.5"></path>
        <path d="M404.39 361.85L674.89 404.86" stroke="rgba(135, 159, 184, 0.26)" stroke-width="1.5"></path>
        <path d="M369.66 532.78L369.66 532.78" stroke="rgba(135, 159, 184, 0.26)" stroke-width="1.5"></path>
        <path d="M369.66 532.78L492.27 510.98" stroke="rgba(135, 159, 184, 0.26)" stroke-width="1.5"></path>
        <path d="M369.66 532.78L342.92 673.32" stroke="rgba(135, 159, 184, 0.26)" stroke-width="1.5"></path>
        <path d="M342.92 673.32L342.92 673.32" stroke="rgba(135, 159, 184, 0.26)" stroke-width="1.5"></path>
        <path d="M342.92 673.32L243.54 493.41" stroke="rgba(135, 159, 184, 0.26)" stroke-width="1.5"></path>
        <path d="M342.92 673.32L545.9 640.03" stroke="rgba(135, 159, 184, 0.26)" stroke-width="1.5"></path>
        <path d="M509.9 347.6L509.9 347.6" stroke="rgba(135, 159, 184, 0.26)" stroke-width="1.5"></path>
        <path d="M509.9 347.6L492.27 510.98" stroke="rgba(135, 159, 184, 0.26)" stroke-width="1.5"></path>
        <path d="M509.9 347.6L674.89 404.86" stroke="rgba(135, 159, 184, 0.26)" stroke-width="1.5"></path>
        <path d="M509.9 347.6L369.66 532.78" stroke="rgba(135, 159, 184, 0.26)" stroke-width="1.5"></path>
        <path d="M509.9 347.6L661.99 556.09" stroke="rgba(135, 159, 184, 0.26)" stroke-width="1.5"></path>
        <path d="M492.27 510.98L492.27 510.98" stroke="rgba(135, 159, 184, 0.26)" stroke-width="1.5"></path>
        <path d="M492.27 510.98L545.9 640.03" stroke="rgba(135, 159, 184, 0.26)" stroke-width="1.5"></path>
        <path d="M545.9 640.03L545.9 640.03" stroke="rgba(135, 159, 184, 0.26)" stroke-width="1.5"></path>
        <path d="M545.9 640.03L672.14 651.75" stroke="rgba(135, 159, 184, 0.26)" stroke-width="1.5"></path>
        <path d="M545.9 640.03L661.99 556.09" stroke="rgba(135, 159, 184, 0.26)" stroke-width="1.5"></path>
        <path d="M674.89 404.86L674.89 404.86" stroke="rgba(135, 159, 184, 0.26)" stroke-width="1.5"></path>
        <path d="M674.89 404.86L804.5 381.32" stroke="rgba(135, 159, 184, 0.26)" stroke-width="1.5"></path>
        <path d="M674.89 404.86L661.99 556.09" stroke="rgba(135, 159, 184, 0.26)" stroke-width="1.5"></path>
        <path d="M674.89 404.86L798.43 517.36" stroke="rgba(135, 159, 184, 0.26)" stroke-width="1.5"></path>
        <path d="M661.99 556.09L661.99 556.09" stroke="rgba(135, 159, 184, 0.26)" stroke-width="1.5"></path>
        <path d="M661.99 556.09L672.14 651.75" stroke="rgba(135, 159, 184, 0.26)" stroke-width="1.5"></path>
        <path d="M661.99 556.09L798.43 517.36" stroke="rgba(135, 159, 184, 0.26)" stroke-width="1.5"></path>
        <path d="M661.99 556.09L492.27 510.98" stroke="rgba(135, 159, 184, 0.26)" stroke-width="1.5"></path>
        <path d="M672.14 651.75L672.14 651.75" stroke="rgba(135, 159, 184, 0.26)" stroke-width="1.5"></path>
        <path d="M672.14 651.75L839.12 685.3" stroke="rgba(135, 159, 184, 0.26)" stroke-width="1.5"></path>
        <path d="M672.14 651.75L798.43 517.36" stroke="rgba(135, 159, 184, 0.26)" stroke-width="1.5"></path>
        <path d="M672.14 651.75L492.27 510.98" stroke="rgba(135, 159, 184, 0.26)" stroke-width="1.5"></path>
        <path d="M672.14 651.75L674.89 404.86" stroke="rgba(135, 159, 184, 0.26)" stroke-width="1.5"></path>
        <path d="M858.71 95.35L858.71 95.35" stroke="rgba(135, 159, 184, 0.26)" stroke-width="1.5"></path>
        <path d="M858.71 95.35L988.11 73.74" stroke="rgba(135, 159, 184, 0.26)" stroke-width="1.5"></path>
        <path d="M858.71 95.35L971.63 189.07" stroke="rgba(135, 159, 184, 0.26)" stroke-width="1.5"></path>
        <path d="M858.71 95.35L821.58 238.8" stroke="rgba(135, 159, 184, 0.26)" stroke-width="1.5"></path>
        <path d="M821.58 238.8L821.58 238.8" stroke="rgba(135, 159, 184, 0.26)" stroke-width="1.5"></path>
        <path d="M821.58 238.8L804.5 381.32" stroke="rgba(135, 159, 184, 0.26)" stroke-width="1.5"></path>
        <path d="M821.58 238.8L971.63 189.07" stroke="rgba(135, 159, 184, 0.26)" stroke-width="1.5"></path>
        <path d="M821.58 238.8L674.89 404.86" stroke="rgba(135, 159, 184, 0.26)" stroke-width="1.5"></path>
        <path d="M821.58 238.8L1006.07 364.15" stroke="rgba(135, 159, 184, 0.26)" stroke-width="1.5"></path>
        <path d="M804.5 381.32L804.5 381.32" stroke="rgba(135, 159, 184, 0.26)" stroke-width="1.5"></path>
        <path d="M804.5 381.32L798.43 517.36" stroke="rgba(135, 159, 184, 0.26)" stroke-width="1.5"></path>
        <path d="M804.5 381.32L970.66 495.02" stroke="rgba(135, 159, 184, 0.26)" stroke-width="1.5"></path>
        <path d="M804.5 381.32L1006.07 364.15" stroke="rgba(135, 159, 184, 0.26)" stroke-width="1.5"></path>
        <path d="M804.5 381.32L661.99 556.09" stroke="rgba(135, 159, 184, 0.26)" stroke-width="1.5"></path>
        <path d="M798.43 517.36L798.43 517.36" stroke="rgba(135, 159, 184, 0.26)" stroke-width="1.5"></path>
        <path d="M798.43 517.36L839.12 685.3" stroke="rgba(135, 159, 184, 0.26)" stroke-width="1.5"></path>
        <path d="M798.43 517.36L970.66 495.02" stroke="rgba(135, 159, 184, 0.26)" stroke-width="1.5"></path>
        <path d="M839.12 685.3L839.12 685.3" stroke="rgba(135, 159, 184, 0.26)" stroke-width="1.5"></path>
        <path d="M954.56 -100.03L954.56 -100.03" stroke="rgba(135, 159, 184, 0.26)" stroke-width="1.5"></path>
        <path d="M954.56 -100.03L1099.16 -72.31" stroke="rgba(135, 159, 184, 0.26)" stroke-width="1.5"></path>
        <path d="M954.56 -100.03L988.11 73.74" stroke="rgba(135, 159, 184, 0.26)" stroke-width="1.5"></path>
        <path d="M954.56 -100.03L858.71 95.35" stroke="rgba(135, 159, 184, 0.26)" stroke-width="1.5"></path>
        <path d="M988.11 73.74L988.11 73.74" stroke="rgba(135, 159, 184, 0.26)" stroke-width="1.5"></path>
        <path d="M988.11 73.74L971.63 189.07" stroke="rgba(135, 159, 184, 0.26)" stroke-width="1.5"></path>
        <path d="M988.11 73.74L1127.06 52.66" stroke="rgba(135, 159, 184, 0.26)" stroke-width="1.5"></path>
        <path d="M988.11 73.74L1099.16 -72.31" stroke="rgba(135, 159, 184, 0.26)" stroke-width="1.5"></path>
        <path d="M971.63 189.07L971.63 189.07" stroke="rgba(135, 159, 184, 0.26)" stroke-width="1.5"></path>
        <path d="M971.63 189.07L1006.07 364.15" stroke="rgba(135, 159, 184, 0.26)" stroke-width="1.5"></path>
        <path d="M971.63 189.07L1160.98 223.62" stroke="rgba(135, 159, 184, 0.26)" stroke-width="1.5"></path>
        <path d="M1006.07 364.15L1006.07 364.15" stroke="rgba(135, 159, 184, 0.26)" stroke-width="1.5"></path>
        <path d="M1006.07 364.15L970.66 495.02" stroke="rgba(135, 159, 184, 0.26)" stroke-width="1.5"></path>
        <path d="M1006.07 364.15L1144.4 389.17" stroke="rgba(135, 159, 184, 0.26)" stroke-width="1.5"></path>
        <path d="M970.66 495.02L970.66 495.02" stroke="rgba(135, 159, 184, 0.26)" stroke-width="1.5"></path>
        <path d="M970.66 495.02L1144.37 500.92" stroke="rgba(135, 159, 184, 0.26)" stroke-width="1.5"></path>
        <path d="M1099.16 -72.31L1099.16 -72.31" stroke="rgba(135, 159, 184, 0.26)" stroke-width="1.5"></path>
        <path d="M1099.16 -72.31L1127.06 52.66" stroke="rgba(135, 159, 184, 0.26)" stroke-width="1.5"></path>
        <path d="M1099.16 -72.31L1311.49 -88.99" stroke="rgba(135, 159, 184, 0.26)" stroke-width="1.5"></path>
        <path d="M1099.16 -72.31L1271.55 96.67" stroke="rgba(135, 159, 184, 0.26)" stroke-width="1.5"></path>
        <path d="M1099.16 -72.31L971.63 189.07" stroke="rgba(135, 159, 184, 0.26)" stroke-width="1.5"></path>
        <path d="M1127.06 52.66L1127.06 52.66" stroke="rgba(135, 159, 184, 0.26)" stroke-width="1.5"></path>
        <path d="M1160.98 223.62L1160.98 223.62" stroke="rgba(135, 159, 184, 0.26)" stroke-width="1.5"></path>
        <path d="M1160.98 223.62L1296.12 239.93" stroke="rgba(135, 159, 184, 0.26)" stroke-width="1.5"></path>
        <path d="M1160.98 223.62L1144.4 389.17" stroke="rgba(135, 159, 184, 0.26)" stroke-width="1.5"></path>
        <path d="M1160.98 223.62L1271.55 96.67" stroke="rgba(135, 159, 184, 0.26)" stroke-width="1.5"></path>
        <path d="M1160.98 223.62L1127.06 52.66" stroke="rgba(135, 159, 184, 0.26)" stroke-width="1.5"></path>
        <path d="M1160.98 223.62L1260.22 403.4" stroke="rgba(135, 159, 184, 0.26)" stroke-width="1.5"></path>
        <path d="M1144.4 389.17L1144.4 389.17" stroke="rgba(135, 159, 184, 0.26)" stroke-width="1.5"></path>
        <path d="M1144.4 389.17L1144.37 500.92" stroke="rgba(135, 159, 184, 0.26)" stroke-width="1.5"></path>
        <path d="M1144.4 389.17L1260.22 403.4" stroke="rgba(135, 159, 184, 0.26)" stroke-width="1.5"></path>
        <path d="M1144.37 500.92L1144.37 500.92" stroke="rgba(135, 159, 184, 0.26)" stroke-width="1.5"></path>
        <path d="M1144.37 500.92L1257.9 505.89" stroke="rgba(135, 159, 184, 0.26)" stroke-width="1.5"></path>
        <path d="M1144.37 500.92L1260.22 403.4" stroke="rgba(135, 159, 184, 0.26)" stroke-width="1.5"></path>
        <path d="M1144.37 500.92L1136.11 688.73" stroke="rgba(135, 159, 184, 0.26)" stroke-width="1.5"></path>
        <path d="M1144.37 500.92L1006.07 364.15" stroke="rgba(135, 159, 184, 0.26)" stroke-width="1.5"></path>
        <path d="M1136.11 688.73L1136.11 688.73" stroke="rgba(135, 159, 184, 0.26)" stroke-width="1.5"></path>
        <path d="M1136.11 688.73L1298.28 661.59" stroke="rgba(135, 159, 184, 0.26)" stroke-width="1.5"></path>
        <path d="M1136.11 688.73L1257.9 505.89" stroke="rgba(135, 159, 184, 0.26)" stroke-width="1.5"></path>
        <path d="M1136.11 688.73L970.66 495.02" stroke="rgba(135, 159, 184, 0.26)" stroke-width="1.5"></path>
        <path d="M1136.11 688.73L1393.61 686.2" stroke="rgba(135, 159, 184, 0.26)" stroke-width="1.5"></path>
        <path d="M1136.11 688.73L839.12 685.3" stroke="rgba(135, 159, 184, 0.26)" stroke-width="1.5"></path>
        <path d="M1311.49 -88.99L1311.49 -88.99" stroke="rgba(135, 159, 184, 0.26)" stroke-width="1.5"></path>
        <path d="M1311.49 -88.99L1394.48 41.53" stroke="rgba(135, 159, 184, 0.26)" stroke-width="1.5"></path>
        <path d="M1311.49 -88.99L1271.55 96.67" stroke="rgba(135, 159, 184, 0.26)" stroke-width="1.5"></path>
        <path d="M1311.49 -88.99L1127.06 52.66" stroke="rgba(135, 159, 184, 0.26)" stroke-width="1.5"></path>
        <path d="M1271.55 96.67L1271.55 96.67" stroke="rgba(135, 159, 184, 0.26)" stroke-width="1.5"></path>
        <path d="M1271.55 96.67L1394.48 41.53" stroke="rgba(135, 159, 184, 0.26)" stroke-width="1.5"></path>
        <path d="M1271.55 96.67L1296.12 239.93" stroke="rgba(135, 159, 184, 0.26)" stroke-width="1.5"></path>
        <path d="M1271.55 96.67L1127.06 52.66" stroke="rgba(135, 159, 184, 0.26)" stroke-width="1.5"></path>
        <path d="M1271.55 96.67L1446.46 191.34" stroke="rgba(135, 159, 184, 0.26)" stroke-width="1.5"></path>
        <path d="M1296.12 239.93L1296.12 239.93" stroke="rgba(135, 159, 184, 0.26)" stroke-width="1.5"></path>
        <path d="M1260.22 403.4L1260.22 403.4" stroke="rgba(135, 159, 184, 0.26)" stroke-width="1.5"></path>
        <path d="M1260.22 403.4L1257.9 505.89" stroke="rgba(135, 159, 184, 0.26)" stroke-width="1.5"></path>
        <path d="M1260.22 403.4L1408.44 402.5" stroke="rgba(135, 159, 184, 0.26)" stroke-width="1.5"></path>
        <path d="M1257.9 505.89L1257.9 505.89" stroke="rgba(135, 159, 184, 0.26)" stroke-width="1.5"></path>
        <path d="M1257.9 505.89L1298.28 661.59" stroke="rgba(135, 159, 184, 0.26)" stroke-width="1.5"></path>
        <path d="M1298.28 661.59L1298.28 661.59" stroke="rgba(135, 159, 184, 0.26)" stroke-width="1.5"></path>
        <path d="M1298.28 661.59L1393.61 686.2" stroke="rgba(135, 159, 184, 0.26)" stroke-width="1.5"></path>
        <path d="M1298.28 661.59L1425.23 502.82" stroke="rgba(135, 159, 184, 0.26)" stroke-width="1.5"></path>
        <path d="M1298.28 661.59L1144.37 500.92" stroke="rgba(135, 159, 184, 0.26)" stroke-width="1.5"></path>
        <path d="M1394.48 41.53L1394.48 41.53" stroke="rgba(135, 159, 184, 0.26)" stroke-width="1.5"></path>
        <path d="M1394.48 41.53L1446.46 191.34" stroke="rgba(135, 159, 184, 0.26)" stroke-width="1.5"></path>
        <path d="M1394.48 41.53L1584.33 -46.17" stroke="rgba(135, 159, 184, 0.26)" stroke-width="1.5"></path>
        <path d="M1394.48 41.53L1296.12 239.93" stroke="rgba(135, 159, 184, 0.26)" stroke-width="1.5"></path>
        <path d="M1394.48 41.53L1612.29 88.05" stroke="rgba(135, 159, 184, 0.26)" stroke-width="1.5"></path>
        <path d="M1446.46 191.34L1446.46 191.34" stroke="rgba(135, 159, 184, 0.26)" stroke-width="1.5"></path>
        <path d="M1446.46 191.34L1556.97 220.33" stroke="rgba(135, 159, 184, 0.26)" stroke-width="1.5"></path>
        <path d="M1446.46 191.34L1296.12 239.93" stroke="rgba(135, 159, 184, 0.26)" stroke-width="1.5"></path>
        <path d="M1408.44 402.5L1408.44 402.5" stroke="rgba(135, 159, 184, 0.26)" stroke-width="1.5"></path>
        <path d="M1408.44 402.5L1425.23 502.82" stroke="rgba(135, 159, 184, 0.26)" stroke-width="1.5"></path>
        <path d="M1408.44 402.5L1257.9 505.89" stroke="rgba(135, 159, 184, 0.26)" stroke-width="1.5"></path>
        <path d="M1408.44 402.5L1594.5 359.86" stroke="rgba(135, 159, 184, 0.26)" stroke-width="1.5"></path>
        <path d="M1408.44 402.5L1296.12 239.93" stroke="rgba(135, 159, 184, 0.26)" stroke-width="1.5"></path>
        <path d="M1425.23 502.82L1425.23 502.82" stroke="rgba(135, 159, 184, 0.26)" stroke-width="1.5"></path>
        <path d="M1425.23 502.82L1257.9 505.89" stroke="rgba(135, 159, 184, 0.26)" stroke-width="1.5"></path>
        <path d="M1425.23 502.82L1594.73 497.86" stroke="rgba(135, 159, 184, 0.26)" stroke-width="1.5"></path>
        <path d="M1425.23 502.82L1393.61 686.2" stroke="rgba(135, 159, 184, 0.26)" stroke-width="1.5"></path>
        <path d="M1425.23 502.82L1260.22 403.4" stroke="rgba(135, 159, 184, 0.26)" stroke-width="1.5"></path>
        <path d="M1393.61 686.2L1393.61 686.2" stroke="rgba(135, 159, 184, 0.26)" stroke-width="1.5"></path>
        <path d="M1584.33 -46.17L1584.33 -46.17" stroke="rgba(135, 159, 184, 0.26)" stroke-width="1.5"></path>
        <path d="M1584.33 -46.17L1612.29 88.05" stroke="rgba(135, 159, 184, 0.26)" stroke-width="1.5"></path>
        <path d="M1584.33 -46.17L1556.97 220.33" stroke="rgba(135, 159, 184, 0.26)" stroke-width="1.5"></path>
        <path d="M1584.33 -46.17L1446.46 191.34" stroke="rgba(135, 159, 184, 0.26)" stroke-width="1.5"></path>
        <path d="M1584.33 -46.17L1311.49 -88.99" stroke="rgba(135, 159, 184, 0.26)" stroke-width="1.5"></path>
        <path d="M1584.33 -46.17L1271.55 96.67" stroke="rgba(135, 159, 184, 0.26)" stroke-width="1.5"></path>
        <path d="M1612.29 88.05L1612.29 88.05" stroke="rgba(135, 159, 184, 0.26)" stroke-width="1.5"></path>
        <path d="M1612.29 88.05L1556.97 220.33" stroke="rgba(135, 159, 184, 0.26)" stroke-width="1.5"></path>
        <path d="M1612.29 88.05L1446.46 191.34" stroke="rgba(135, 159, 184, 0.26)" stroke-width="1.5"></path>
        <path d="M1556.97 220.33L1556.97 220.33" stroke="rgba(135, 159, 184, 0.26)" stroke-width="1.5"></path>
        <path d="M1556.97 220.33L1594.5 359.86" stroke="rgba(135, 159, 184, 0.26)" stroke-width="1.5"></path>
        <path d="M1556.97 220.33L1408.44 402.5" stroke="rgba(135, 159, 184, 0.26)" stroke-width="1.5"></path>
        <path d="M1556.97 220.33L1394.48 41.53" stroke="rgba(135, 159, 184, 0.26)" stroke-width="1.5"></path>
        <path d="M1594.5 359.86L1594.5 359.86" stroke="rgba(135, 159, 184, 0.26)" stroke-width="1.5"></path>
        <path d="M1594.5 359.86L1594.73 497.86" stroke="rgba(135, 159, 184, 0.26)" stroke-width="1.5"></path>
        <path d="M1594.5 359.86L1425.23 502.82" stroke="rgba(135, 159, 184, 0.26)" stroke-width="1.5"></path>
        <path d="M1594.5 359.86L1446.46 191.34" stroke="rgba(135, 159, 184, 0.26)" stroke-width="1.5"></path>
        <path d="M1594.73 497.86L1594.73 497.86" stroke="rgba(135, 159, 184, 0.26)" stroke-width="1.5"></path>
        <path d="M1606.31 712.2L1606.31 712.2" stroke="rgba(135, 159, 184, 0.26)" stroke-width="1.5"></path>
        <path d="M1606.31 712.2L1393.61 686.2" stroke="rgba(135, 159, 184, 0.26)" stroke-width="1.5"></path>
        <path d="M1606.31 712.2L1594.73 497.86" stroke="rgba(135, 159, 184, 0.26)" stroke-width="1.5"></path>
        <path d="M1606.31 712.2L1425.23 502.82" stroke="rgba(135, 159, 184, 0.26)" stroke-width="1.5"></path>
        <path d="M1606.31 712.2L1298.28 661.59" stroke="rgba(135, 159, 184, 0.26)" stroke-width="1.5"></path>
        <circle r="5" cx="-104.35" cy="410.64" fill="rgba(135, 159, 184, 0.26)"></circle>
        <circle r="5" cx="-60.96" cy="509.36" fill="rgba(135, 159, 184, 0.26)"></circle>
        <circle r="5" cx="-92.78" cy="709.48" fill="rgba(135, 159, 184, 0.26)"></circle>
        <circle r="5" cx="89.49" cy="520.62" fill="rgba(135, 159, 184, 0.26)"></circle>
        <circle r="5" cx="243.74" cy="343.14" fill="rgba(135, 159, 184, 0.26)"></circle>
        <circle r="5" cx="243.54" cy="493.41" fill="rgba(135, 159, 184, 0.26)"></circle>
        <circle r="5" cx="225.3" cy="653.49" fill="rgba(135, 159, 184, 0.26)"></circle>
        <circle r="5" cx="404.39" cy="361.85" fill="rgba(135, 159, 184, 0.26)"></circle>
        <circle r="5" cx="369.66" cy="532.78" fill="rgba(135, 159, 184, 0.26)"></circle>
        <circle r="5" cx="342.92" cy="673.32" fill="rgba(135, 159, 184, 0.26)"></circle>
        <circle r="5" cx="509.9" cy="347.6" fill="rgba(135, 159, 184, 0.26)"></circle>
        <circle r="5" cx="492.27" cy="510.98" fill="rgba(135, 159, 184, 0.26)"></circle>
        <circle r="5" cx="545.9" cy="640.03" fill="rgba(135, 159, 184, 0.26)"></circle>
        <circle r="5" cx="674.89" cy="404.86" fill="rgba(135, 159, 184, 0.26)"></circle>
        <circle r="5" cx="661.99" cy="556.09" fill="rgba(135, 159, 184, 0.26)"></circle>
        <circle r="5" cx="672.14" cy="651.75" fill="rgba(135, 159, 184, 0.26)"></circle>
        <circle r="5" cx="858.71" cy="95.35" fill="rgba(135, 159, 184, 0.26)"></circle>
        <circle r="5" cx="821.58" cy="238.8" fill="rgba(135, 159, 184, 0.26)"></circle>
        <circle r="5" cx="804.5" cy="381.32" fill="rgba(135, 159, 184, 0.26)"></circle>
        <circle r="5" cx="798.43" cy="517.36" fill="rgba(135, 159, 184, 0.26)"></circle>
        <circle r="5" cx="839.12" cy="685.3" fill="rgba(135, 159, 184, 0.26)"></circle>
        <circle r="5" cx="954.56" cy="-100.03" fill="rgba(135, 159, 184, 0.26)"></circle>
        <circle r="5" cx="988.11" cy="73.74" fill="rgba(135, 159, 184, 0.26)"></circle>
        <circle r="5" cx="971.63" cy="189.07" fill="rgba(135, 159, 184, 0.26)"></circle>
        <circle r="5" cx="1006.07" cy="364.15" fill="rgba(135, 159, 184, 0.26)"></circle>
        <circle r="5" cx="970.66" cy="495.02" fill="rgba(135, 159, 184, 0.26)"></circle>
        <circle r="5" cx="1099.16" cy="-72.31" fill="rgba(135, 159, 184, 0.26)"></circle>
        <circle r="5" cx="1127.06" cy="52.66" fill="rgba(135, 159, 184, 0.26)"></circle>
        <circle r="5" cx="1160.98" cy="223.62" fill="rgba(135, 159, 184, 0.26)"></circle>
        <circle r="5" cx="1144.4" cy="389.17" fill="rgba(135, 159, 184, 0.26)"></circle>
        <circle r="5" cx="1144.37" cy="500.92" fill="rgba(135, 159, 184, 0.26)"></circle>
        <circle r="5" cx="1136.11" cy="688.73" fill="rgba(135, 159, 184, 0.26)"></circle>
        <circle r="5" cx="1311.49" cy="-88.99" fill="rgba(135, 159, 184, 0.26)"></circle>
        <circle r="5" cx="1271.55" cy="96.67" fill="rgba(135, 159, 184, 0.26)"></circle>
        <circle r="5" cx="1296.12" cy="239.93" fill="rgba(135, 159, 184, 0.26)"></circle>
        <circle r="5" cx="1260.22" cy="403.4" fill="rgba(135, 159, 184, 0.26)"></circle>
        <circle r="5" cx="1257.9" cy="505.89" fill="rgba(135, 159, 184, 0.26)"></circle>
        <circle r="5" cx="1298.28" cy="661.59" fill="rgba(135, 159, 184, 0.26)"></circle>
        <circle r="5" cx="1394.48" cy="41.53" fill="rgba(135, 159, 184, 0.26)"></circle>
        <circle r="5" cx="1446.46" cy="191.34" fill="rgba(135, 159, 184, 0.26)"></circle>
        <circle r="5" cx="1408.44" cy="402.5" fill="rgba(135, 159, 184, 0.26)"></circle>
        <circle r="5" cx="1425.23" cy="502.82" fill="rgba(135, 159, 184, 0.26)"></circle>
        <circle r="5" cx="1393.61" cy="686.2" fill="rgba(135, 159, 184, 0.26)"></circle>
        <circle r="5" cx="1584.33" cy="-46.17" fill="rgba(135, 159, 184, 0.26)"></circle>
        <circle r="5" cx="1612.29" cy="88.05" fill="rgba(135, 159, 184, 0.26)"></circle>
        <circle r="5" cx="1556.97" cy="220.33" fill="rgba(135, 159, 184, 0.26)"></circle>
        <circle r="5" cx="1594.5" cy="359.86" fill="rgba(135, 159, 184, 0.26)"></circle>
        <circle r="5" cx="1594.73" cy="497.86" fill="rgba(135, 159, 184, 0.26)"></circle>
        <circle r="5" cx="1606.31" cy="712.2" fill="rgba(135, 159, 184, 0.26)"></circle>
        <path d="M658.28 701.2L658.28 701.2" stroke="hsla(221.39999999999998, 69.3%, 71.9%, 0.72)" stroke-width="1.5"></path>
        <path d="M658.28 701.2L512.89 677.56" stroke="hsla(221.39999999999998, 69.3%, 71.9%, 0.72)" stroke-width="1.5"></path>
        <path d="M658.28 701.2L808.47 661.87" stroke="hsla(221.39999999999998, 69.3%, 71.9%, 0.72)" stroke-width="1.5"></path>
        <path d="M658.28 701.2L663.07 545.02" stroke="hsla(221.39999999999998, 69.3%, 71.9%, 0.72)" stroke-width="1.5"></path>
        <path d="M658.28 701.2L536.9 507.77" stroke="hsla(221.39999999999998, 69.3%, 71.9%, 0.72)" stroke-width="1.5"></path>
        <path d="M1096.77 662.84L1096.77 662.84" stroke="hsla(221.39999999999998, 69.3%, 71.9%, 0.72)" stroke-width="1.5"></path>
        <path d="M1096.77 662.84L1114.6 550.89" stroke="hsla(221.39999999999998, 69.3%, 71.9%, 0.72)" stroke-width="1.5"></path>
        <path d="M1096.77 662.84L950.52 651.19" stroke="hsla(221.39999999999998, 69.3%, 71.9%, 0.72)" stroke-width="1.5"></path>
        <path d="M1096.77 662.84L967.19 531.55" stroke="hsla(221.39999999999998, 69.3%, 71.9%, 0.72)" stroke-width="1.5"></path>
        <path d="M1096.77 662.84L1288.54 670.37" stroke="hsla(221.39999999999998, 69.3%, 71.9%, 0.72)" stroke-width="1.5"></path>
        <path d="M1096.77 662.84L1271.35 559.75" stroke="hsla(221.39999999999998, 69.3%, 71.9%, 0.72)" stroke-width="1.5"></path>
        <path d="M1096.77 662.84L992.51 404.28" stroke="hsla(221.39999999999998, 69.3%, 71.9%, 0.72)" stroke-width="1.5"></path>
        <path d="M1257.37 82.98L1257.37 82.98" stroke="hsla(221.39999999999998, 69.3%, 71.9%, 0.72)" stroke-width="1.5"></path>
        <path d="M1257.37 82.98L1406.42 98.62" stroke="hsla(221.39999999999998, 69.3%, 71.9%, 0.72)" stroke-width="1.5"></path>
        <path d="M1257.37 82.98L1266.77 -79.89" stroke="hsla(221.39999999999998, 69.3%, 71.9%, 0.72)" stroke-width="1.5"></path>
        <path d="M1257.37 82.98L1152.71 224.01" stroke="hsla(221.39999999999998, 69.3%, 71.9%, 0.72)" stroke-width="1.5"></path>
        <path d="M1257.37 82.98L1253.76 261" stroke="hsla(221.39999999999998, 69.3%, 71.9%, 0.72)" stroke-width="1.5"></path>
        <path d="M1257.37 82.98L1415.82 -92.68" stroke="hsla(221.39999999999998, 69.3%, 71.9%, 0.72)" stroke-width="1.5"></path>
        <path d="M1610.48 88.79L1610.48 88.79" stroke="hsla(221.39999999999998, 69.3%, 71.9%, 0.72)" stroke-width="1.5"></path>
        <path d="M1610.48 88.79L1583.67 228.64" stroke="hsla(221.39999999999998, 69.3%, 71.9%, 0.72)" stroke-width="1.5"></path>
        <path d="M1610.48 88.79L1552.14 -86.42" stroke="hsla(221.39999999999998, 69.3%, 71.9%, 0.72)" stroke-width="1.5"></path>
        <path d="M-44.94 506.06L-44.94 506.06" stroke="hsla(221.39999999999998, 69.3%, 71.9%, 0.72)" stroke-width="1.5"></path>
        <path d="M-44.94 506.06L64.8 546.62" stroke="hsla(221.39999999999998, 69.3%, 71.9%, 0.72)" stroke-width="1.5"></path>
        <path d="M-44.94 506.06L82.2 638.77" stroke="hsla(221.39999999999998, 69.3%, 71.9%, 0.72)" stroke-width="1.5"></path>
        <path d="M-44.94 506.06L-62.11 712.45" stroke="hsla(221.39999999999998, 69.3%, 71.9%, 0.72)" stroke-width="1.5"></path>
        <path d="M-44.94 506.06L252.28 548.72" stroke="hsla(221.39999999999998, 69.3%, 71.9%, 0.72)" stroke-width="1.5"></path>
        <path d="M-44.94 506.06L250.14 694.82" stroke="hsla(221.39999999999998, 69.3%, 71.9%, 0.72)" stroke-width="1.5"></path>
        <path d="M-44.94 506.06L341.15 504.14" stroke="hsla(221.39999999999998, 69.3%, 71.9%, 0.72)" stroke-width="1.5"></path>
        <path d="M-62.11 712.45L-62.11 712.45" stroke="hsla(221.39999999999998, 69.3%, 71.9%, 0.72)" stroke-width="1.5"></path>
        <path d="M-62.11 712.45L82.2 638.77" stroke="hsla(221.39999999999998, 69.3%, 71.9%, 0.72)" stroke-width="1.5"></path>
        <path d="M-62.11 712.45L64.8 546.62" stroke="hsla(221.39999999999998, 69.3%, 71.9%, 0.72)" stroke-width="1.5"></path>
        <path d="M-62.11 712.45L250.14 694.82" stroke="hsla(221.39999999999998, 69.3%, 71.9%, 0.72)" stroke-width="1.5"></path>
        <path d="M64.8 546.62L64.8 546.62" stroke="hsla(221.39999999999998, 69.3%, 71.9%, 0.72)" stroke-width="1.5"></path>
        <path d="M64.8 546.62L82.2 638.77" stroke="hsla(221.39999999999998, 69.3%, 71.9%, 0.72)" stroke-width="1.5"></path>
        <path d="M82.2 638.77L82.2 638.77" stroke="hsla(221.39999999999998, 69.3%, 71.9%, 0.72)" stroke-width="1.5"></path>
        <path d="M82.2 638.77L250.14 694.82" stroke="hsla(221.39999999999998, 69.3%, 71.9%, 0.72)" stroke-width="1.5"></path>
        <path d="M252.28 548.72L252.28 548.72" stroke="hsla(221.39999999999998, 69.3%, 71.9%, 0.72)" stroke-width="1.5"></path>
        <path d="M252.28 548.72L341.15 504.14" stroke="hsla(221.39999999999998, 69.3%, 71.9%, 0.72)" stroke-width="1.5"></path>
        <path d="M252.28 548.72L250.14 694.82" stroke="hsla(221.39999999999998, 69.3%, 71.9%, 0.72)" stroke-width="1.5"></path>
        <path d="M252.28 548.72L64.8 546.62" stroke="hsla(221.39999999999998, 69.3%, 71.9%, 0.72)" stroke-width="1.5"></path>
        <path d="M250.14 694.82L250.14 694.82" stroke="hsla(221.39999999999998, 69.3%, 71.9%, 0.72)" stroke-width="1.5"></path>
        <path d="M250.14 694.82L341.15 504.14" stroke="hsla(221.39999999999998, 69.3%, 71.9%, 0.72)" stroke-width="1.5"></path>
        <path d="M250.14 694.82L64.8 546.62" stroke="hsla(221.39999999999998, 69.3%, 71.9%, 0.72)" stroke-width="1.5"></path>
        <path d="M250.14 694.82L512.89 677.56" stroke="hsla(221.39999999999998, 69.3%, 71.9%, 0.72)" stroke-width="1.5"></path>
        <path d="M341.15 504.14L341.15 504.14" stroke="hsla(221.39999999999998, 69.3%, 71.9%, 0.72)" stroke-width="1.5"></path>
        <path d="M341.15 504.14L536.9 507.77" stroke="hsla(221.39999999999998, 69.3%, 71.9%, 0.72)" stroke-width="1.5"></path>
        <path d="M536.9 507.77L536.9 507.77" stroke="hsla(221.39999999999998, 69.3%, 71.9%, 0.72)" stroke-width="1.5"></path>
        <path d="M536.9 507.77L663.07 545.02" stroke="hsla(221.39999999999998, 69.3%, 71.9%, 0.72)" stroke-width="1.5"></path>
        <path d="M536.9 507.77L512.89 677.56" stroke="hsla(221.39999999999998, 69.3%, 71.9%, 0.72)" stroke-width="1.5"></path>
        <path d="M512.89 677.56L512.89 677.56" stroke="hsla(221.39999999999998, 69.3%, 71.9%, 0.72)" stroke-width="1.5"></path>
        <path d="M687.28 390.79L687.28 390.79" stroke="hsla(221.39999999999998, 69.3%, 71.9%, 0.72)" stroke-width="1.5"></path>
        <path d="M687.28 390.79L663.07 545.02" stroke="hsla(221.39999999999998, 69.3%, 71.9%, 0.72)" stroke-width="1.5"></path>
        <path d="M687.28 390.79L853.13 346.06" stroke="hsla(221.39999999999998, 69.3%, 71.9%, 0.72)" stroke-width="1.5"></path>
        <path d="M687.28 390.79L536.9 507.77" stroke="hsla(221.39999999999998, 69.3%, 71.9%, 0.72)" stroke-width="1.5"></path>
        <path d="M687.28 390.79L834.74 529.53" stroke="hsla(221.39999999999998, 69.3%, 71.9%, 0.72)" stroke-width="1.5"></path>
        <path d="M663.07 545.02L663.07 545.02" stroke="hsla(221.39999999999998, 69.3%, 71.9%, 0.72)" stroke-width="1.5"></path>
        <path d="M853.13 346.06L853.13 346.06" stroke="hsla(221.39999999999998, 69.3%, 71.9%, 0.72)" stroke-width="1.5"></path>
        <path d="M853.13 346.06L992.51 404.28" stroke="hsla(221.39999999999998, 69.3%, 71.9%, 0.72)" stroke-width="1.5"></path>
        <path d="M853.13 346.06L834.74 529.53" stroke="hsla(221.39999999999998, 69.3%, 71.9%, 0.72)" stroke-width="1.5"></path>
        <path d="M853.13 346.06L1005.01 223.75" stroke="hsla(221.39999999999998, 69.3%, 71.9%, 0.72)" stroke-width="1.5"></path>
        <path d="M834.74 529.53L834.74 529.53" stroke="hsla(221.39999999999998, 69.3%, 71.9%, 0.72)" stroke-width="1.5"></path>
        <path d="M834.74 529.53L967.19 531.55" stroke="hsla(221.39999999999998, 69.3%, 71.9%, 0.72)" stroke-width="1.5"></path>
        <path d="M834.74 529.53L808.47 661.87" stroke="hsla(221.39999999999998, 69.3%, 71.9%, 0.72)" stroke-width="1.5"></path>
        <path d="M834.74 529.53L950.52 651.19" stroke="hsla(221.39999999999998, 69.3%, 71.9%, 0.72)" stroke-width="1.5"></path>
        <path d="M834.74 529.53L663.07 545.02" stroke="hsla(221.39999999999998, 69.3%, 71.9%, 0.72)" stroke-width="1.5"></path>
        <path d="M808.47 661.87L808.47 661.87" stroke="hsla(221.39999999999998, 69.3%, 71.9%, 0.72)" stroke-width="1.5"></path>
        <path d="M1005.01 223.75L1005.01 223.75" stroke="hsla(221.39999999999998, 69.3%, 71.9%, 0.72)" stroke-width="1.5"></path>
        <path d="M1005.01 223.75L1152.71 224.01" stroke="hsla(221.39999999999998, 69.3%, 71.9%, 0.72)" stroke-width="1.5"></path>
        <path d="M1005.01 223.75L1117.12 340.38" stroke="hsla(221.39999999999998, 69.3%, 71.9%, 0.72)" stroke-width="1.5"></path>
        <path d="M1005.01 223.75L992.51 404.28" stroke="hsla(221.39999999999998, 69.3%, 71.9%, 0.72)" stroke-width="1.5"></path>
        <path d="M992.51 404.28L992.51 404.28" stroke="hsla(221.39999999999998, 69.3%, 71.9%, 0.72)" stroke-width="1.5"></path>
        <path d="M992.51 404.28L967.19 531.55" stroke="hsla(221.39999999999998, 69.3%, 71.9%, 0.72)" stroke-width="1.5"></path>
        <path d="M992.51 404.28L1117.12 340.38" stroke="hsla(221.39999999999998, 69.3%, 71.9%, 0.72)" stroke-width="1.5"></path>
        <path d="M967.19 531.55L967.19 531.55" stroke="hsla(221.39999999999998, 69.3%, 71.9%, 0.72)" stroke-width="1.5"></path>
        <path d="M967.19 531.55L950.52 651.19" stroke="hsla(221.39999999999998, 69.3%, 71.9%, 0.72)" stroke-width="1.5"></path>
        <path d="M967.19 531.55L1114.6 550.89" stroke="hsla(221.39999999999998, 69.3%, 71.9%, 0.72)" stroke-width="1.5"></path>
        <path d="M950.52 651.19L950.52 651.19" stroke="hsla(221.39999999999998, 69.3%, 71.9%, 0.72)" stroke-width="1.5"></path>
        <path d="M950.52 651.19L808.47 661.87" stroke="hsla(221.39999999999998, 69.3%, 71.9%, 0.72)" stroke-width="1.5"></path>
        <path d="M1152.71 224.01L1152.71 224.01" stroke="hsla(221.39999999999998, 69.3%, 71.9%, 0.72)" stroke-width="1.5"></path>
        <path d="M1152.71 224.01L1253.76 261" stroke="hsla(221.39999999999998, 69.3%, 71.9%, 0.72)" stroke-width="1.5"></path>
        <path d="M1117.12 340.38L1117.12 340.38" stroke="hsla(221.39999999999998, 69.3%, 71.9%, 0.72)" stroke-width="1.5"></path>
        <path d="M1117.12 340.38L1152.71 224.01" stroke="hsla(221.39999999999998, 69.3%, 71.9%, 0.72)" stroke-width="1.5"></path>
        <path d="M1114.6 550.89L1114.6 550.89" stroke="hsla(221.39999999999998, 69.3%, 71.9%, 0.72)" stroke-width="1.5"></path>
        <path d="M1114.6 550.89L1271.35 559.75" stroke="hsla(221.39999999999998, 69.3%, 71.9%, 0.72)" stroke-width="1.5"></path>
        <path d="M1114.6 550.89L992.51 404.28" stroke="hsla(221.39999999999998, 69.3%, 71.9%, 0.72)" stroke-width="1.5"></path>
        <path d="M1266.77 -79.89L1266.77 -79.89" stroke="hsla(221.39999999999998, 69.3%, 71.9%, 0.72)" stroke-width="1.5"></path>
        <path d="M1266.77 -79.89L1415.82 -92.68" stroke="hsla(221.39999999999998, 69.3%, 71.9%, 0.72)" stroke-width="1.5"></path>
        <path d="M1266.77 -79.89L1406.42 98.62" stroke="hsla(221.39999999999998, 69.3%, 71.9%, 0.72)" stroke-width="1.5"></path>
        <path d="M1266.77 -79.89L1552.14 -86.42" stroke="hsla(221.39999999999998, 69.3%, 71.9%, 0.72)" stroke-width="1.5"></path>
        <path d="M1253.76 261L1253.76 261" stroke="hsla(221.39999999999998, 69.3%, 71.9%, 0.72)" stroke-width="1.5"></path>
        <path d="M1253.76 261L1283.51 377.49" stroke="hsla(221.39999999999998, 69.3%, 71.9%, 0.72)" stroke-width="1.5"></path>
        <path d="M1253.76 261L1117.12 340.38" stroke="hsla(221.39999999999998, 69.3%, 71.9%, 0.72)" stroke-width="1.5"></path>
        <path d="M1283.51 377.49L1283.51 377.49" stroke="hsla(221.39999999999998, 69.3%, 71.9%, 0.72)" stroke-width="1.5"></path>
        <path d="M1283.51 377.49L1396.43 502.82" stroke="hsla(221.39999999999998, 69.3%, 71.9%, 0.72)" stroke-width="1.5"></path>
        <path d="M1283.51 377.49L1117.12 340.38" stroke="hsla(221.39999999999998, 69.3%, 71.9%, 0.72)" stroke-width="1.5"></path>
        <path d="M1271.35 559.75L1271.35 559.75" stroke="hsla(221.39999999999998, 69.3%, 71.9%, 0.72)" stroke-width="1.5"></path>
        <path d="M1271.35 559.75L1288.54 670.37" stroke="hsla(221.39999999999998, 69.3%, 71.9%, 0.72)" stroke-width="1.5"></path>
        <path d="M1271.35 559.75L1396.43 502.82" stroke="hsla(221.39999999999998, 69.3%, 71.9%, 0.72)" stroke-width="1.5"></path>
        <path d="M1288.54 670.37L1288.54 670.37" stroke="hsla(221.39999999999998, 69.3%, 71.9%, 0.72)" stroke-width="1.5"></path>
        <path d="M1288.54 670.37L1449.88 692.31" stroke="hsla(221.39999999999998, 69.3%, 71.9%, 0.72)" stroke-width="1.5"></path>
        <path d="M1415.82 -92.68L1415.82 -92.68" stroke="hsla(221.39999999999998, 69.3%, 71.9%, 0.72)" stroke-width="1.5"></path>
        <path d="M1415.82 -92.68L1552.14 -86.42" stroke="hsla(221.39999999999998, 69.3%, 71.9%, 0.72)" stroke-width="1.5"></path>
        <path d="M1415.82 -92.68L1406.42 98.62" stroke="hsla(221.39999999999998, 69.3%, 71.9%, 0.72)" stroke-width="1.5"></path>
        <path d="M1406.42 98.62L1406.42 98.62" stroke="hsla(221.39999999999998, 69.3%, 71.9%, 0.72)" stroke-width="1.5"></path>
        <path d="M1406.42 98.62L1434.06 254.98" stroke="hsla(221.39999999999998, 69.3%, 71.9%, 0.72)" stroke-width="1.5"></path>
        <path d="M1434.06 254.98L1434.06 254.98" stroke="hsla(221.39999999999998, 69.3%, 71.9%, 0.72)" stroke-width="1.5"></path>
        <path d="M1434.06 254.98L1455.48 363.73" stroke="hsla(221.39999999999998, 69.3%, 71.9%, 0.72)" stroke-width="1.5"></path>
        <path d="M1434.06 254.98L1583.67 228.64" stroke="hsla(221.39999999999998, 69.3%, 71.9%, 0.72)" stroke-width="1.5"></path>
        <path d="M1434.06 254.98L1253.76 261" stroke="hsla(221.39999999999998, 69.3%, 71.9%, 0.72)" stroke-width="1.5"></path>
        <path d="M1434.06 254.98L1283.51 377.49" stroke="hsla(221.39999999999998, 69.3%, 71.9%, 0.72)" stroke-width="1.5"></path>
        <path d="M1434.06 254.98L1610.31 339.42" stroke="hsla(221.39999999999998, 69.3%, 71.9%, 0.72)" stroke-width="1.5"></path>
        <path d="M1455.48 363.73L1455.48 363.73" stroke="hsla(221.39999999999998, 69.3%, 71.9%, 0.72)" stroke-width="1.5"></path>
        <path d="M1455.48 363.73L1396.43 502.82" stroke="hsla(221.39999999999998, 69.3%, 71.9%, 0.72)" stroke-width="1.5"></path>
        <path d="M1455.48 363.73L1610.31 339.42" stroke="hsla(221.39999999999998, 69.3%, 71.9%, 0.72)" stroke-width="1.5"></path>
        <path d="M1396.43 502.82L1396.43 502.82" stroke="hsla(221.39999999999998, 69.3%, 71.9%, 0.72)" stroke-width="1.5"></path>
        <path d="M1449.88 692.31L1449.88 692.31" stroke="hsla(221.39999999999998, 69.3%, 71.9%, 0.72)" stroke-width="1.5"></path>
        <path d="M1449.88 692.31L1594.58 697" stroke="hsla(221.39999999999998, 69.3%, 71.9%, 0.72)" stroke-width="1.5"></path>
        <path d="M1552.14 -86.42L1552.14 -86.42" stroke="hsla(221.39999999999998, 69.3%, 71.9%, 0.72)" stroke-width="1.5"></path>
        <path d="M1552.14 -86.42L1406.42 98.62" stroke="hsla(221.39999999999998, 69.3%, 71.9%, 0.72)" stroke-width="1.5"></path>
        <path d="M1552.14 -86.42L1583.67 228.64" stroke="hsla(221.39999999999998, 69.3%, 71.9%, 0.72)" stroke-width="1.5"></path>
        <path d="M1552.14 -86.42L1257.37 82.98" stroke="hsla(221.39999999999998, 69.3%, 71.9%, 0.72)" stroke-width="1.5"></path>
        <path d="M1583.67 228.64L1583.67 228.64" stroke="hsla(221.39999999999998, 69.3%, 71.9%, 0.72)" stroke-width="1.5"></path>
        <path d="M1583.67 228.64L1610.31 339.42" stroke="hsla(221.39999999999998, 69.3%, 71.9%, 0.72)" stroke-width="1.5"></path>
        <path d="M1583.67 228.64L1455.48 363.73" stroke="hsla(221.39999999999998, 69.3%, 71.9%, 0.72)" stroke-width="1.5"></path>
        <path d="M1610.31 339.42L1610.31 339.42" stroke="hsla(221.39999999999998, 69.3%, 71.9%, 0.72)" stroke-width="1.5"></path>
        <path d="M1610.31 339.42L1594.68 549.17" stroke="hsla(221.39999999999998, 69.3%, 71.9%, 0.72)" stroke-width="1.5"></path>
        <path d="M1610.31 339.42L1610.48 88.79" stroke="hsla(221.39999999999998, 69.3%, 71.9%, 0.72)" stroke-width="1.5"></path>
        <path d="M1610.31 339.42L1396.43 502.82" stroke="hsla(221.39999999999998, 69.3%, 71.9%, 0.72)" stroke-width="1.5"></path>
        <path d="M1594.68 549.17L1594.68 549.17" stroke="hsla(221.39999999999998, 69.3%, 71.9%, 0.72)" stroke-width="1.5"></path>
        <path d="M1594.68 549.17L1594.58 697" stroke="hsla(221.39999999999998, 69.3%, 71.9%, 0.72)" stroke-width="1.5"></path>
        <path d="M1594.68 549.17L1396.43 502.82" stroke="hsla(221.39999999999998, 69.3%, 71.9%, 0.72)" stroke-width="1.5"></path>
        <path d="M1594.68 549.17L1449.88 692.31" stroke="hsla(221.39999999999998, 69.3%, 71.9%, 0.72)" stroke-width="1.5"></path>
        <path d="M1594.58 697L1594.58 697" stroke="hsla(221.39999999999998, 69.3%, 71.9%, 0.72)" stroke-width="1.5"></path>
        <path d="M1594.58 697L1396.43 502.82" stroke="hsla(221.39999999999998, 69.3%, 71.9%, 0.72)" stroke-width="1.5"></path>
        <circle r="25" cx="658.28" cy="701.2" fill="url(&quot;#SvgjsRadialGradient1093&quot;)"></circle>
        <circle r="25" cx="1096.77" cy="662.84" fill="url(&quot;#SvgjsRadialGradient1093&quot;)"></circle>
        <circle r="25" cx="1257.37" cy="82.98" fill="url(&quot;#SvgjsRadialGradient1093&quot;)"></circle>
        <circle r="25" cx="1610.48" cy="88.79" fill="url(&quot;#SvgjsRadialGradient1093&quot;)"></circle>
        <circle r="5" cx="-44.94" cy="506.06" fill="rgba(186, 203, 242, 0.86)"></circle>
        <circle r="5" cx="-62.11" cy="712.45" fill="rgba(186, 203, 242, 0.86)"></circle>
        <circle r="5" cx="64.8" cy="546.62" fill="rgba(186, 203, 242, 0.86)"></circle>
        <circle r="5" cx="82.2" cy="638.77" fill="rgba(186, 203, 242, 0.86)"></circle>
        <circle r="5" cx="252.28" cy="548.72" fill="rgba(186, 203, 242, 0.86)"></circle>
        <circle r="5" cx="250.14" cy="694.82" fill="rgba(186, 203, 242, 0.86)"></circle>
        <circle r="5" cx="341.15" cy="504.14" fill="rgba(186, 203, 242, 0.86)"></circle>
        <circle r="5" cx="536.9" cy="507.77" fill="rgba(186, 203, 242, 0.86)"></circle>
        <circle r="5" cx="512.89" cy="677.56" fill="rgba(186, 203, 242, 0.86)"></circle>
        <circle r="5" cx="687.28" cy="390.79" fill="rgba(186, 203, 242, 0.86)"></circle>
        <circle r="5" cx="663.07" cy="545.02" fill="rgba(186, 203, 242, 0.86)"></circle>
        <circle r="5" cx="853.13" cy="346.06" fill="rgba(186, 203, 242, 0.86)"></circle>
        <circle r="5" cx="834.74" cy="529.53" fill="rgba(186, 203, 242, 0.86)"></circle>
        <circle r="5" cx="808.47" cy="661.87" fill="rgba(186, 203, 242, 0.86)"></circle>
        <circle r="5" cx="1005.01" cy="223.75" fill="rgba(186, 203, 242, 0.86)"></circle>
        <circle r="5" cx="992.51" cy="404.28" fill="rgba(186, 203, 242, 0.86)"></circle>
        <circle r="5" cx="967.19" cy="531.55" fill="rgba(186, 203, 242, 0.86)"></circle>
        <circle r="5" cx="950.52" cy="651.19" fill="rgba(186, 203, 242, 0.86)"></circle>
        <circle r="5" cx="1152.71" cy="224.01" fill="rgba(186, 203, 242, 0.86)"></circle>
        <circle r="5" cx="1117.12" cy="340.38" fill="rgba(186, 203, 242, 0.86)"></circle>
        <circle r="5" cx="1114.6" cy="550.89" fill="rgba(186, 203, 242, 0.86)"></circle>
        <circle r="5" cx="1266.77" cy="-79.89" fill="rgba(186, 203, 242, 0.86)"></circle>
        <circle r="5" cx="1253.76" cy="261" fill="rgba(186, 203, 242, 0.86)"></circle>
        <circle r="5" cx="1283.51" cy="377.49" fill="rgba(186, 203, 242, 0.86)"></circle>
        <circle r="5" cx="1271.35" cy="559.75" fill="rgba(186, 203, 242, 0.86)"></circle>
        <circle r="5" cx="1288.54" cy="670.37" fill="rgba(186, 203, 242, 0.86)"></circle>
        <circle r="5" cx="1415.82" cy="-92.68" fill="rgba(186, 203, 242, 0.86)"></circle>
        <circle r="5" cx="1406.42" cy="98.62" fill="rgba(186, 203, 242, 0.86)"></circle>
        <circle r="5" cx="1434.06" cy="254.98" fill="rgba(186, 203, 242, 0.86)"></circle>
        <circle r="5" cx="1455.48" cy="363.73" fill="rgba(186, 203, 242, 0.86)"></circle>
        <circle r="5" cx="1396.43" cy="502.82" fill="rgba(186, 203, 242, 0.86)"></circle>
        <circle r="5" cx="1449.88" cy="692.31" fill="rgba(186, 203, 242, 0.86)"></circle>
        <circle r="5" cx="1552.14" cy="-86.42" fill="rgba(186, 203, 242, 0.86)"></circle>
        <circle r="5" cx="1583.67" cy="228.64" fill="rgba(186, 203, 242, 0.86)"></circle>
        <circle r="5" cx="1610.31" cy="339.42" fill="rgba(186, 203, 242, 0.86)"></circle>
        <circle r="5" cx="1594.68" cy="549.17" fill="rgba(186, 203, 242, 0.86)"></circle>
        <circle r="5" cx="1594.58" cy="697" fill="rgba(186, 203, 242, 0.86)"></circle>
    </g>
    <defs>
        <mask id="SvgjsMask1092">
            <rect width="1440" height="560" fill="#ffffff"></rect>
        </mask>
        <radialGradient id="SvgjsRadialGradient1093">
            <stop stop-color="#ffffff" offset="0.1"></stop>
            <stop stop-color="rgba(62, 111, 220, 0.72)" offset="0.2"></stop>
            <stop stop-color="rgba(62, 111, 220, 0)" offset="1"></stop>
        </radialGradient>
    </defs>
</svg>