<svg xmlns="http://www.w3.org/2000/svg" version="1.1" xmlns:xlink="http://www.w3.org/1999/xlink" xmlns:svgjs="http://svgjs.dev/svgjs" width="1440" height="560" preserveAspectRatio="none" viewBox="0 0 1440 560">
    <g mask="url(&quot;#SvgjsMask1039&quot;)" fill="none">
        <rect width="1440" height="560" x="0" y="0" fill="rgba(62, 111, 220, 0.72)"></rect>
        <path d="M0,397.404C72.67,388.973,130.654,337.016,185.403,288.493C233.532,245.837,262.76,190.246,295.916,135.141C333.598,72.515,388.25,16.432,392.986,-56.503C398.145,-135.952,379.111,-223.417,322.857,-279.757C267.331,-335.369,177.997,-327.332,102.127,-347.812C28.248,-367.754,-43.885,-421.049,-117.008,-398.492C-190.04,-375.963,-229.52,-298.584,-269.2,-233.264C-303.741,-176.402,-311.297,-111.26,-330.235,-47.481C-352.941,28.989,-414.522,102.426,-391.561,178.82C-368.498,255.553,-285.241,295.928,-215.28,334.983C-148.693,372.155,-75.752,406.193,0,397.404" fill="rgba(34, 82, 189, 0.72)"></path>
        <path d="M1440 974.821C1548.606 985.76 1658.804 1102.234 1752.708 1046.583 1845.49 991.597 1790.324 838.553 1835.3229999999999 740.538 1880.464 642.2139999999999 2005.38 585.321 2013.9859999999999 477.473 2022.848 366.413 1957.38 258.912 1880.165 178.59500000000003 1804.8899999999999 100.29599999999999 1696.538 71.779 1592.855 39.423 1487.465 6.533999999999992 1373.378-55.52999999999997 1272.31-11.099000000000046 1171.259 33.325000000000045 1148.872 164.08999999999997 1092.883 259.222 1047.708 335.98 982.38 404.416 975.5029999999999 493.21500000000003 968.8 579.774 1024.883 654.316 1056.011 735.362 1089.525 822.619 1086.001 937.957 1165.315 987.418 1244.6970000000001 1036.922 1346.9180000000001 965.4449999999999 1440 974.821" fill="rgba(112, 148, 229, 0.72)"></path>
    </g>
    <defs>
        <mask id="SvgjsMask1039">
            <rect width="1440" height="560" fill="#ffffff"></rect>
        </mask>
    </defs>
</svg>